<svg width="11" height="11" viewBox="0 0 11 11" fill="none" xmlns="http://www.w3.org/2000/svg">
<path d="M10.0688 0.54416C9.76029 0.23528 9.26543 0.23528 8.95695 0.54416L5.30656 4.19924L1.65618 0.54416C1.34769 0.23528 0.852834 0.23528 0.544351 0.54416C0.235867 0.853041 0.235867 1.34854 0.544351 1.65742L4.19474 5.3125L0.544351 8.96758C0.235867 9.27646 0.235867 9.77196 0.544351 10.0808C0.698592 10.2353 0.897821 10.3125 1.10348 10.3125C1.30913 10.3125 1.50836 10.2353 1.6626 10.0808L5.31299 6.42576L8.96337 10.0808C9.11761 10.2353 9.31684 10.3125 9.5225 10.3125C9.72816 10.3125 9.92739 10.2353 10.0816 10.0808C10.3901 9.77196 10.3901 9.27646 10.0816 8.96758L6.41839 5.3125L10.0688 1.65742C10.3773 1.34854 10.3773 0.853041 10.0688 0.54416Z" fill="#1F6019"/>
</svg>
