<svg width="26" height="24" viewBox="0 0 26 24" fill="none" xmlns="http://www.w3.org/2000/svg">
<path d="M14.25 0.75C11.2663 0.75 8.40483 1.93526 6.29505 4.04505C4.18526 6.15483 3 9.01631 3 12H-0.75L4.1125 16.8625L4.2 17.0375L9.25 12H5.5C5.5 7.1625 9.4125 3.25 14.25 3.25C19.0875 3.25 23 7.1625 23 12C23 16.8375 19.0875 20.75 14.25 20.75C11.8375 20.75 9.65 19.7625 8.075 18.175L6.3 19.95C7.34177 20.9975 8.58061 21.8284 9.94508 22.3948C11.3095 22.9612 12.7726 23.2518 14.25 23.25C17.2337 23.25 20.0952 22.0647 22.205 19.955C24.3147 17.8452 25.5 14.9837 25.5 12C25.5 9.01631 24.3147 6.15483 22.205 4.04505C20.0952 1.93526 17.2337 0.75 14.25 0.75ZM13 7V13.25L18.3125 16.4L19.275 14.8L14.875 12.1875V7H13Z" fill="#1935CA"/>
</svg>
